<svg xmlns="http://www.w3.org/2000/svg" xmlns:xlink="http://www.w3.org/1999/xlink" viewBox="0,0,256,256" width="25px" height="25px"><g fill="#37c830" fill-rule="nonzero" stroke="none" stroke-width="1" stroke-linecap="butt" stroke-linejoin="miter" stroke-miterlimit="10" stroke-dasharray="" stroke-dashoffset="0" font-family="none" font-weight="none" font-size="none" text-anchor="none" style="mix-blend-mode: normal"><g transform="scale(5.33333,5.33333)"><path d="M17.265,42.423c-3.499,-1.973 -5.372,-6.93 -3.437,-10.158c1.766,-3.063 6.922,-4.599 11.538,-1.774c2.485,1.528 5.43,2.782 9.019,2.782c3.315,0 6.444,-1.973 8.195,-4.934c0.644,-1.076 1.104,-2.421 1.381,-3.318c-0.093,3.14 -1.014,6.367 -2.762,9.24c-4.419,7.626 -16.57,12.378 -23.934,8.162z"></path><path d="M11.627,8.985c3.477,-1.815 8.874,-1.177 10.521,2.36c1.465,3.175 1.477,7.623 -4.482,10.795c-2.562,1.361 -5.489,2.995 -7.137,6.082c-1.555,2.903 -1.74,6.44 0,9.526c0.64,1.088 1.555,2.268 2.194,2.903c-2.652,-1.726 -4.939,-4.175 -6.587,-7.258c-4.136,-7.455 -2.104,-20.413 5.491,-24.408z"></path><path d="M43,19.963c0,3.84 -3.361,8.037 -7.268,8.037c-3.634,0 -7.268,-2.051 -7.268,-8.84c0,-2.857 -0.273,-6.161 -2.09,-9.021c-1.725,-2.766 -4.921,-4.559 -8.467,-4.469c-0.977,0.001 -2.045,0.095 -2.907,0.33c0.6,-0.276 1.062,-0.53 2.012,-0.863c2.082,-0.728 4.356,-1.075 6.727,-1.137c8.905,0 19.169,7.66 19.261,15.963z"></path></g></g></svg>